C:\GBW_MyPrograms\PredSimResults\Vitruvian_man\IG_v12ms.mot
version=1
nRows=8
nColumns=35
inDegrees=yes
endheader
                time	         pelvis_tilt	           pelvis_tx	           pelvis_ty	       hip_flexion_r	        knee_angle_r	       ankle_angle_r	         mtp_angle_r	       hip_flexion_l	        knee_angle_l	       ankle_angle_l	         mtp_angle_l	    lumbar_extension	          arm_flex_r	          arm_flex_l	        elbow_flex_r	        elbow_flex_l	hamstrings_r/activation	bifemsh_r/activation	glut_max_r/activation	iliopsoas_r/activation	rect_fem_r/activation	  vasti_r/activation	gastroc_r/activation	 soleus_r/activation	tib_ant_r/activation	hamstrings_l/activation	bifemsh_l/activation	glut_max_l/activation	iliopsoas_l/activation	rect_fem_l/activation	  vasti_l/activation	gastroc_l/activation	 soleus_l/activation	tib_ant_l/activation	
          1.35914470	         -0.28237656	          1.60999694	          0.95440844	         27.99547237	         -2.25461940	          0.19138891	          0.22554354	        -22.51471769	         -2.36385326	          6.46546203	         18.62983864	        -12.35109488	         30.66901527	         30.67132945	         91.44628142	         91.45747270	          0.31425822	          0.05224678	          0.06575509	          0.05058556	          0.05128701	          0.05040572	          0.06304563	          0.05007833	          0.36849128	          0.08173139	          0.22050342	          0.05020569	          0.44068629	          0.05008764	          0.05013249	          0.40738713	          0.28614595	          0.05005492	
          1.37273615	         -1.11572216	          1.63215339	          0.95145703	         27.21506832	         -1.26214382	         -1.08710969	          0.26383569	        -21.85424571	         -4.37179296	          5.65080218	         19.73180902	        -10.97650991	         31.34820670	         31.34980744	         94.53247621	         94.54393711	          0.29617888	          0.05097594	          0.10348749	          0.05007488	          0.05017944	          0.05052505	          0.06137341	          0.05014977	          0.43810492	          0.08754158	          0.18242631	          0.05019254	          0.37947396	          0.05005028	          0.05007597	          0.34594056	          0.26464659	          0.05002844	
          1.38632760	         -1.98758319	          1.65499020	          0.94892041	         26.41194414	         -0.45614013	         -2.82948713	          0.26799995	        -20.91483665	         -6.82387930	          4.53809649	         20.73194525	         -9.45493620	         31.52193123	         31.52176087	         97.50467860	         97.51774825	          0.27510549	          0.07093491	          0.14299329	          0.05005071	          0.05009246	          0.05028669	          0.05008051	          0.05001060	          0.63065609	          0.08842074	          0.14908527	          0.05027696	          0.30944116	          0.05004221	          0.05004971	          0.28205906	          0.21578889	          0.05002417	
          1.39991904	         -2.88413696	          1.67780291	          0.94730138	         25.67688251	          0.36646072	         -4.97625033	          0.21317800	        -19.57188021	         -9.85268841	          3.01118393	         21.51821538	         -7.89003688	         31.20321140	         31.20022237	        100.30148276	        100.31774967	          0.26452823	          0.05827761	          0.18547499	          0.05003659	          0.05009671	          0.05053954	          0.05003859	          0.05001436	          0.80620085	          0.08578578	          0.12192399	          0.05015944	          0.25230067	          0.05003492	          0.05002739	          0.22996949	          0.17593765	          0.05001999	
          1.41351049	         -3.78263669	          1.70010484	          0.94687267	         25.11870612	          0.82250039	         -6.39319335	          0.16472244	        -17.80351420	        -13.43520285	          0.92883894	         21.97605221	         -6.36410425	         30.38921156	         30.38275078	        102.89185715	        102.91202878	          0.25052491	          0.05064926	          0.22508448	          0.05003584	          0.05010092	          0.05085584	          0.05003683	          0.05001705	          0.89830406	          0.08040088	          0.11788255	          0.05007400	          0.20570960	          0.05002489	          0.05001285	          0.18749911	          0.14344525	          0.05001706	
          1.42710194	         -4.65836225	          1.72171124	          0.94763334	         24.70875467	          0.96016978	         -7.21847180	          0.12922036	        -15.69741921	        -17.41234869	         -1.58050980	         21.68743323	         -4.92152687	         29.06699313	         29.05678819	        105.26466381	        105.28867862	          0.23466748	          0.05050568	          0.25639476	          0.05004140	          0.05012979	          0.05159539	          0.05004193	          0.05002368	          0.94660047	          0.06561712	          0.09943671	          0.05004185	          0.16772320	          0.05002343	          0.05000789	          0.15287253	          0.11695367	          0.09589426	
          1.44069338	         -5.48795455	          1.74266761	          0.94937907	         24.38666203	          0.85094037	         -7.51155994	          0.09437277	        -13.39678820	        -21.64963643	         -3.85863797	         19.83460185	         -3.57674944	         27.23181979	         27.21799130	        107.41355503	        107.44046482	          0.21916131	          0.05045811	          0.28096610	          0.05003766	          0.05011309	          0.05256210	          0.05004359	          0.05002855	          0.93741527	          0.05352094	          0.08116388	          0.05003705	          0.13675460	          0.05005457	          0.05001078	          0.12464179	          0.09535499	          0.30094683	
          1.45428483	         -6.25351663	          1.76308800	          0.95182677	         24.08911004	          0.58599149	         -7.41800575	          0.03397543	        -11.08283613	        -25.81930946	         -5.14926189	         16.78095777	         -2.33161757	         24.90342982	         24.88645091	        109.32703159	        109.35496675	          0.19721110	          0.05056432	          0.28189837	          0.05005029	          0.05014408	          0.05158326	          0.05004788	          0.05002903	          0.86913135	          0.05003274	          0.06637963	          0.05002883	          0.11152130	          0.05022896	          0.05001264	          0.10162812	          0.07774659	          0.37903501	
